<svg width="13" height="14" viewBox="0 0 13 14" fill="none" xmlns="http://www.w3.org/2000/svg">
<path fill-rule="evenodd" clip-rule="evenodd" d="M8.56888 9.58324L11.8692 7.9413C12.6056 7.56919 12.6056 6.42275 11.8692 6.06133L8.56888 4.41938L7.06954 0.8042C6.73862 -0.00219741 5.68287 -0.00219741 5.35283 0.8042L3.85349 4.41841L0.552273 6.06035C-0.184091 6.43246 -0.184091 7.57891 0.552273 7.94033L3.8526 9.58227L5.35194 13.1975C5.69174 14.0039 6.73862 14.0039 7.06865 13.1975L8.56799 9.58324H8.56888ZM7.22923 5.88644L9.4676 7.00083L7.22745 8.11521L6.21074 10.5684L5.19314 8.11521L2.953 7.00083L5.19314 5.88644L6.21074 3.43325L7.22923 5.88644Z" fill="#0067C5"/>
</svg>
